<mxfile host="app.diagrams.net" modified="2023-05-22T07:35:48.440Z" agent="Mozilla/5.0 (Macintosh; Intel Mac OS X 10_15_7) AppleWebKit/537.36 (KHTML, like Gecko) Chrome/112.0.0.0 Safari/537.36" etag="exd8rh7lUMCHr8HPze3r" version="21.3.2">
  <diagram name="Diagramme de séquence" id="2YBvvXClWsGukQMizWep">
    <mxGraphModel dx="2074" dy="1160" grid="1" gridSize="10" guides="1" tooltips="1" connect="1" arrows="1" fold="1" page="1" pageScale="1" pageWidth="850" pageHeight="1100" math="0" shadow="0">
      <root>
        <mxCell id="0" />
        <mxCell id="1" parent="0" />
        <mxCell id="aM9ryv3xv72pqoxQDRHE-5" value=":Administrateur" style="shape=umlLifeline;perimeter=lifelinePerimeter;whiteSpace=wrap;html=1;container=0;dropTarget=0;collapsible=0;recursiveResize=0;outlineConnect=0;portConstraint=eastwest;newEdgeStyle={&quot;edgeStyle&quot;:&quot;elbowEdgeStyle&quot;,&quot;elbow&quot;:&quot;vertical&quot;,&quot;curved&quot;:0,&quot;rounded&quot;:0};" parent="1" vertex="1">
          <mxGeometry x="180" y="40" width="140" height="400" as="geometry" />
        </mxCell>
        <mxCell id="aM9ryv3xv72pqoxQDRHE-6" value="" style="html=1;points=[];perimeter=orthogonalPerimeter;outlineConnect=0;targetShapes=umlLifeline;portConstraint=eastwest;newEdgeStyle={&quot;edgeStyle&quot;:&quot;elbowEdgeStyle&quot;,&quot;elbow&quot;:&quot;vertical&quot;,&quot;curved&quot;:0,&quot;rounded&quot;:0};" parent="aM9ryv3xv72pqoxQDRHE-5" vertex="1">
          <mxGeometry x="65" y="80" width="10" height="300" as="geometry" />
        </mxCell>
        <mxCell id="8jSayttRSvI3yILceSQn-1" value=":ChemistryDeathRace&lt;br&gt;-api" style="shape=umlLifeline;perimeter=lifelinePerimeter;whiteSpace=wrap;html=1;container=0;dropTarget=0;collapsible=0;recursiveResize=0;outlineConnect=0;portConstraint=eastwest;newEdgeStyle={&quot;edgeStyle&quot;:&quot;elbowEdgeStyle&quot;,&quot;elbow&quot;:&quot;vertical&quot;,&quot;curved&quot;:0,&quot;rounded&quot;:0};" parent="1" vertex="1">
          <mxGeometry x="500" y="40" width="140" height="400" as="geometry" />
        </mxCell>
        <mxCell id="8jSayttRSvI3yILceSQn-12" value="" style="html=1;points=[];perimeter=orthogonalPerimeter;outlineConnect=0;targetShapes=umlLifeline;portConstraint=eastwest;newEdgeStyle={&quot;edgeStyle&quot;:&quot;elbowEdgeStyle&quot;,&quot;elbow&quot;:&quot;vertical&quot;,&quot;curved&quot;:0,&quot;rounded&quot;:0};" parent="8jSayttRSvI3yILceSQn-1" vertex="1">
          <mxGeometry x="70" y="260" width="10" height="120" as="geometry" />
        </mxCell>
        <mxCell id="8jSayttRSvI3yILceSQn-13" value="Vérifie la &lt;br&gt;signature du JWT" style="html=1;align=left;spacingLeft=2;endArrow=block;rounded=0;edgeStyle=orthogonalEdgeStyle;curved=0;rounded=0;movable=1;resizable=1;rotatable=1;deletable=1;editable=1;locked=0;connectable=1;" parent="8jSayttRSvI3yILceSQn-1" source="8jSayttRSvI3yILceSQn-12" target="8jSayttRSvI3yILceSQn-12" edge="1">
          <mxGeometry relative="1" as="geometry">
            <mxPoint x="105" y="450" as="sourcePoint" />
            <Array as="points">
              <mxPoint x="115" y="280" />
              <mxPoint x="115" y="310" />
            </Array>
          </mxGeometry>
        </mxCell>
        <mxCell id="8jSayttRSvI3yILceSQn-15" value="" style="html=1;align=left;spacingLeft=2;endArrow=block;rounded=0;edgeStyle=orthogonalEdgeStyle;curved=0;rounded=0;" parent="8jSayttRSvI3yILceSQn-1" source="8jSayttRSvI3yILceSQn-12" target="8jSayttRSvI3yILceSQn-12" edge="1">
          <mxGeometry relative="1" as="geometry">
            <mxPoint x="10" y="480" as="sourcePoint" />
            <Array as="points">
              <mxPoint x="115" y="330" />
              <mxPoint x="115" y="360" />
            </Array>
          </mxGeometry>
        </mxCell>
        <mxCell id="8jSayttRSvI3yILceSQn-32" value="Ajoute la question" style="edgeLabel;html=1;align=center;verticalAlign=middle;resizable=0;points=[];" parent="8jSayttRSvI3yILceSQn-15" vertex="1" connectable="0">
          <mxGeometry x="0.1057" relative="1" as="geometry">
            <mxPoint x="80" y="-5" as="offset" />
          </mxGeometry>
        </mxCell>
        <mxCell id="8jSayttRSvI3yILceSQn-3" value=":ChemistryDeathRace-auth" style="shape=umlLifeline;perimeter=lifelinePerimeter;whiteSpace=wrap;html=1;container=0;dropTarget=0;collapsible=0;recursiveResize=0;outlineConnect=0;portConstraint=eastwest;newEdgeStyle={&quot;edgeStyle&quot;:&quot;elbowEdgeStyle&quot;,&quot;elbow&quot;:&quot;vertical&quot;,&quot;curved&quot;:0,&quot;rounded&quot;:0};" parent="1" vertex="1">
          <mxGeometry x="340" y="40" width="140" height="240" as="geometry" />
        </mxCell>
        <mxCell id="8jSayttRSvI3yILceSQn-6" value="" style="html=1;points=[];perimeter=orthogonalPerimeter;outlineConnect=0;targetShapes=umlLifeline;portConstraint=eastwest;newEdgeStyle={&quot;edgeStyle&quot;:&quot;elbowEdgeStyle&quot;,&quot;elbow&quot;:&quot;vertical&quot;,&quot;curved&quot;:0,&quot;rounded&quot;:0};" parent="8jSayttRSvI3yILceSQn-3" vertex="1">
          <mxGeometry x="65" y="100" width="10" height="120" as="geometry" />
        </mxCell>
        <mxCell id="8jSayttRSvI3yILceSQn-7" value="" style="html=1;align=left;spacingLeft=2;endArrow=block;rounded=0;edgeStyle=orthogonalEdgeStyle;curved=0;rounded=0;" parent="8jSayttRSvI3yILceSQn-3" source="8jSayttRSvI3yILceSQn-6" target="8jSayttRSvI3yILceSQn-6" edge="1">
          <mxGeometry relative="1" as="geometry">
            <mxPoint x="100" y="350" as="sourcePoint" />
            <Array as="points">
              <mxPoint x="110" y="120" />
              <mxPoint x="110" y="150" />
            </Array>
          </mxGeometry>
        </mxCell>
        <mxCell id="8jSayttRSvI3yILceSQn-24" value="Vérifie les &lt;br&gt;identifiants" style="edgeLabel;html=1;align=left;verticalAlign=middle;resizable=0;points=[];" parent="8jSayttRSvI3yILceSQn-7" vertex="1" connectable="0">
          <mxGeometry x="0.0636" relative="1" as="geometry">
            <mxPoint x="40" y="-3" as="offset" />
          </mxGeometry>
        </mxCell>
        <mxCell id="8jSayttRSvI3yILceSQn-25" value="" style="html=1;align=left;spacingLeft=2;endArrow=block;rounded=0;edgeStyle=orthogonalEdgeStyle;curved=0;rounded=0;" parent="8jSayttRSvI3yILceSQn-3" source="8jSayttRSvI3yILceSQn-6" target="8jSayttRSvI3yILceSQn-6" edge="1">
          <mxGeometry relative="1" as="geometry">
            <mxPoint x="100" y="190" as="sourcePoint" />
            <Array as="points">
              <mxPoint x="110" y="170" />
              <mxPoint x="110" y="200" />
            </Array>
            <mxPoint x="100" y="230" as="targetPoint" />
          </mxGeometry>
        </mxCell>
        <mxCell id="8jSayttRSvI3yILceSQn-26" value="Génère un JWT" style="edgeLabel;html=1;align=center;verticalAlign=middle;resizable=0;points=[];" parent="8jSayttRSvI3yILceSQn-25" vertex="1" connectable="0">
          <mxGeometry x="0.0636" relative="1" as="geometry">
            <mxPoint x="45" y="-5" as="offset" />
          </mxGeometry>
        </mxCell>
        <mxCell id="8jSayttRSvI3yILceSQn-5" value="Se connecte" style="html=1;verticalAlign=bottom;endArrow=block;edgeStyle=elbowEdgeStyle;elbow=vertical;curved=0;rounded=0;" parent="1" source="aM9ryv3xv72pqoxQDRHE-6" target="8jSayttRSvI3yILceSQn-6" edge="1">
          <mxGeometry relative="1" as="geometry">
            <mxPoint x="290" y="160" as="sourcePoint" />
            <Array as="points">
              <mxPoint x="350" y="140" />
              <mxPoint x="375" y="160" />
            </Array>
            <mxPoint x="405" y="139.9999999999999" as="targetPoint" />
          </mxGeometry>
        </mxCell>
        <mxCell id="8jSayttRSvI3yILceSQn-8" value="Obtient le token" style="html=1;verticalAlign=bottom;endArrow=block;edgeStyle=elbowEdgeStyle;elbow=vertical;curved=0;rounded=0;" parent="1" source="8jSayttRSvI3yILceSQn-6" target="aM9ryv3xv72pqoxQDRHE-6" edge="1">
          <mxGeometry relative="1" as="geometry">
            <mxPoint x="255" y="170" as="sourcePoint" />
            <Array as="points">
              <mxPoint x="390" y="260" />
              <mxPoint x="380" y="280" />
              <mxPoint x="350" y="220" />
              <mxPoint x="310" y="200" />
              <mxPoint x="200" y="170" />
            </Array>
            <mxPoint x="110" y="170" as="targetPoint" />
          </mxGeometry>
        </mxCell>
        <mxCell id="8jSayttRSvI3yILceSQn-9" value="Ajoute une question" style="html=1;verticalAlign=bottom;endArrow=block;edgeStyle=elbowEdgeStyle;elbow=vertical;curved=0;rounded=0;" parent="1" target="8jSayttRSvI3yILceSQn-12" edge="1">
          <mxGeometry relative="1" as="geometry">
            <mxPoint x="255" y="300" as="sourcePoint" />
            <Array as="points">
              <mxPoint x="500" y="300" />
              <mxPoint x="190" y="170" />
            </Array>
            <mxPoint x="565" y="299.9999999999999" as="targetPoint" />
          </mxGeometry>
        </mxCell>
        <mxCell id="8jSayttRSvI3yILceSQn-16" value="return" style="html=1;verticalAlign=bottom;endArrow=open;dashed=1;endSize=8;edgeStyle=elbowEdgeStyle;elbow=vertical;curved=0;rounded=0;" parent="1" source="8jSayttRSvI3yILceSQn-12" target="aM9ryv3xv72pqoxQDRHE-6" edge="1">
          <mxGeometry relative="1" as="geometry">
            <mxPoint x="255" y="510" as="targetPoint" />
            <Array as="points">
              <mxPoint x="540" y="420" />
              <mxPoint x="500" y="410" />
              <mxPoint x="350" y="510" />
              <mxPoint x="200" y="400" />
            </Array>
            <mxPoint x="255" y="400" as="sourcePoint" />
          </mxGeometry>
        </mxCell>
        <mxCell id="8jSayttRSvI3yILceSQn-17" value="" style="html=1;verticalAlign=bottom;startArrow=oval;endArrow=block;startSize=8;edgeStyle=elbowEdgeStyle;elbow=vertical;curved=0;rounded=0;" parent="1" target="aM9ryv3xv72pqoxQDRHE-6" edge="1">
          <mxGeometry relative="1" as="geometry">
            <mxPoint x="200" y="120" as="sourcePoint" />
            <mxPoint x="175" y="220.20000000000005" as="targetPoint" />
            <Array as="points" />
          </mxGeometry>
        </mxCell>
        <mxCell id="8jSayttRSvI3yILceSQn-18" value="" style="strokeWidth=2;html=1;shape=mxgraph.flowchart.database;whiteSpace=wrap;" parent="1" vertex="1">
          <mxGeometry x="460" y="160" width="20" height="30" as="geometry" />
        </mxCell>
        <mxCell id="8jSayttRSvI3yILceSQn-23" value="" style="strokeWidth=2;html=1;shape=mxgraph.flowchart.database;whiteSpace=wrap;" parent="1" vertex="1">
          <mxGeometry x="620" y="370" width="20" height="30" as="geometry" />
        </mxCell>
      </root>
    </mxGraphModel>
  </diagram>
</mxfile>
